# xmcd
#
# Track frame offsets: 
#        225
#        13939
#        35612
#        52428
#        66407
#        81494
#        95897
#        113749
#        131576
#        142883
#        156395
#        174240
#        194993
#        209986
#        225824
#        242121
#
# Disc length: 3434 seconds
#
# Revision: 6
# Processed by: cddbd v1.5.2PL0 Copyright (c) Steve Scherf et al.
# Submitted via: ExactAudioCopyFreeDBPlugin 1.0
#
DISCID=fb0d6710
DTITLE=Various Artist - Deutsche Trucker und Western Hitparade
DYEAR=1995
DGENRE=Country
TTITLE0=Truck Stop - Tausend Meilen
TTITLE1=Johnny Hill - Ruf Teddybär Eins-Vier
TTITLE2=Timmeltruck - Amerika
TTITLE3=Tom Astor - Mein Laster Wartet Schon
TTITLE4=Fred Rai - Es Hängt Ein Pferdehalfter An Der Wand
TTITLE5=Mike Frajara - Dusty Boots
TTITLE6=Tina West and Her Wagoners - Wo Ein Wille Ist
TTITLE7=Johnny Hill - Träume, Die Hat Jeder
TTITLE8=Armin Barthel - Hallo, Guten Morgen Deutschland
TTITLE9=Freddy Quinn - It's Country Time
TTITLE10=Timmeltruck - König Der Autobahn
TTITLE11=Peter Orloff - Die Strasse
TTITLE12=Gus Backus - Hey Cowboy
TTITLE13=Fred Rai - Freiheit Auf Räder
TTITLE14=Mike Frajara - Slow Truck
TTITLE15=Frank Spelane and Alamo - Vorüber, Vergessen, Vorbei
EXTD=YEAR: 1995
EXTT0=
EXTT1=
EXTT2=
EXTT3=
EXTT4=
EXTT5=
EXTT6=
EXTT7=
EXTT8=
EXTT9=
EXTT10=
EXTT11=
EXTT12=
EXTT13=
EXTT14=
EXTT15=
PLAYORDER=
